<svg width="20" height="20" viewBox="0 0 20 20" fill="none" xmlns="http://www.w3.org/2000/svg">
<g clip-path="url(#clip0_17065_123277)">
<path d="M7.50001 0.833336H2.50001C1.57954 0.833336 0.833344 1.57953 0.833344 2.5V7.5C0.833344 8.42048 1.57954 9.16667 2.50001 9.16667H7.50001C8.42048 9.16667 9.16668 8.42048 9.16668 7.5V2.5C9.16668 1.57953 8.42048 0.833336 7.50001 0.833336Z" fill="#C061F7"/>
<path d="M19.5234 3.84833L16.1509 0.476668C15.8452 0.172256 15.4314 0.00134277 15 0.00134277C14.5686 0.00134277 14.1548 0.172256 13.8492 0.476668L10.4767 3.84833C10.1722 4.15427 10.0012 4.56835 10.0012 5C10.0012 5.43165 10.1722 5.84574 10.4767 6.15167L13.8492 9.52417C14.1548 9.82858 14.5686 9.99949 15 9.99949C15.4314 9.99949 15.8452 9.82858 16.1509 9.52417L19.5234 6.1525C19.8281 5.84653 19.9992 5.43227 19.9992 5.00042C19.9992 4.56856 19.8281 4.1543 19.5234 3.84833Z" fill="#28DBD1"/>
<path d="M17.5 10.8333H12.5C11.5795 10.8333 10.8333 11.5795 10.8333 12.5V17.5C10.8333 18.4205 11.5795 19.1667 12.5 19.1667H17.5C18.4205 19.1667 19.1667 18.4205 19.1667 17.5V12.5C19.1667 11.5795 18.4205 10.8333 17.5 10.8333Z" fill="#6360FF"/>
<path d="M7.50001 10.8333H2.50001C1.57954 10.8333 0.833344 11.5795 0.833344 12.5V17.5C0.833344 18.4205 1.57954 19.1667 2.50001 19.1667H7.50001C8.42048 19.1667 9.16668 18.4205 9.16668 17.5V12.5C9.16668 11.5795 8.42048 10.8333 7.50001 10.8333Z" fill="#FE6F5C"/>
</g>
<defs>
<clipPath id="clip0_17065_123277">
<rect width="20" height="20" fill="white"/>
</clipPath>
</defs>
</svg>
